<svg width="108" height="108" viewBox="0 0 108 108" fill="none" xmlns="http://www.w3.org/2000/svg">
<rect width="108" height="108" fill="white"/>
<path fill-rule="evenodd" clip-rule="evenodd" d="M54 28.125C47.1655 28.125 41.625 33.6655 41.625 40.5C41.625 47.3345 47.1655 52.875 54 52.875C60.8345 52.875 66.375 47.3345 66.375 40.5C66.375 33.6655 60.8345 28.125 54 28.125ZM48.375 40.5C48.375 37.3934 50.8934 34.875 54 34.875C57.1066 34.875 59.625 37.3934 59.625 40.5C59.625 43.6066 57.1066 46.125 54 46.125C50.8934 46.125 48.375 43.6066 48.375 40.5Z" fill="#5B40C8"/>
<path fill-rule="evenodd" clip-rule="evenodd" d="M54 10.125C37.2243 10.125 23.625 23.7244 23.625 40.5C23.625 45.3199 24.7476 49.8776 26.7456 53.9258L11.5583 80.2309L30.0007 82.0379L40.7867 97.1059L53.9913 74.2349L67.1958 97.1059L77.9819 82.0379L96.4242 80.2309L81.2463 53.942C83.2493 49.8897 84.375 45.3263 84.375 40.5C84.375 23.7244 70.7756 10.125 54 10.125ZM22.6414 74.5345L30.9018 60.227C35.3268 65.4032 41.4613 69.0742 48.431 70.3656L40.1784 84.6595L33.7068 75.6187L22.6414 74.5345ZM77.0877 60.2391C72.6602 65.4128 66.524 69.0807 59.5532 70.3685L67.8041 84.6595L74.2758 75.6187L85.3411 74.5345L77.0877 60.2391ZM30.375 40.5C30.375 27.4523 40.9522 16.875 54 16.875C67.0477 16.875 77.625 27.4523 77.625 40.5C77.625 53.5477 67.0477 64.125 54 64.125C40.9522 64.125 30.375 53.5477 30.375 40.5Z" fill="#5B40C8"/>
</svg>
